<?xml version="1.0" standalone="no"?><!DOCTYPE svg PUBLIC "-//W3C//DTD SVG 1.1//EN" "http://www.w3.org/Graphics/SVG/1.1/DTD/svg11.dtd"><svg t="1552531956395" class="icon" style="" viewBox="0 0 1024 1024" version="1.1" xmlns="http://www.w3.org/2000/svg" p-id="2538" xmlns:xlink="http://www.w3.org/1999/xlink" width="200" height="200"><defs><style type="text/css"></style></defs><path d="M515 927.4c-227.6 0-412.8-185.2-412.8-412.8S287.4 101.8 515 101.8c227.6 0 412.8 185.2 412.8 412.8S742.7 927.4 515 927.4zM237.9 295.1c-50.1 63.3-76.6 139.1-76.6 219.4 0 195 158.7 353.7 353.7 353.7 80.3 0 156.2-26.5 219.4-76.6l8.9-7-498.4-498.3-7 8.8zM515 160.9c-80.3 0-156.2 26.5-219.4 76.6l-8.9 7 498.4 498.4 7-8.9c50.1-63.2 76.6-139 76.6-219.4 0-195.1-158.6-353.7-353.7-353.7z" fill="#ffffff" p-id="2539"></path></svg>